<?xml version="1.0" encoding="UTF-8"?>
<!DOCTYPE svg PUBLIC "-//W3C//DTD SVG 1.1//EN" "http://www.w3.org/Graphics/SVG/1.1/DTD/svg11.dtd">
<svg xmlns="http://www.w3.org/2000/svg" version="1.1" width="512px" height="512px" style="shape-rendering:geometricPrecision; text-rendering:geometricPrecision; image-rendering:optimizeQuality; fill-rule:evenodd; clip-rule:evenodd" xmlns:xlink="http://www.w3.org/1999/xlink">
<g><path style="opacity:0.939" fill="#000000" d="M 511.5,142.5 C 511.5,155.5 511.5,168.5 511.5,181.5C 507.437,200.233 496.103,212.233 477.5,217.5C 476.5,286.497 476.167,355.497 476.5,424.5C 485.304,423.647 493.638,425.147 501.5,429C 506.205,432.531 509.538,437.031 511.5,442.5C 511.5,454.167 511.5,465.833 511.5,477.5C 509.481,481.678 506.148,484.178 501.5,485C 337.5,485.667 173.5,485.667 9.5,485C 4.85226,484.178 1.51892,481.678 -0.5,477.5C -0.5,465.833 -0.5,454.167 -0.5,442.5C 2.23557,434.566 7.5689,429.066 15.5,426C 21.7782,424.812 28.1115,424.312 34.5,424.5C 34.8333,355.497 34.5,286.497 33.5,217.5C 14.8967,212.233 3.56334,200.233 -0.5,181.5C -0.5,168.5 -0.5,155.5 -0.5,142.5C 10.637,120.894 21.8037,99.2278 33,77.5C 33.3333,64.1667 33.6667,50.8333 34,37.5C 35.9081,31.2602 40.0747,27.4269 46.5,26C 60.1667,25.3333 73.8333,25.3333 87.5,26C 94.4532,30.7397 94.7865,35.7397 88.5,41C 75.5043,41.4999 62.5043,41.6666 49.5,41.5C 49.5,51.1667 49.5,60.8333 49.5,70.5C 186.833,70.5 324.167,70.5 461.5,70.5C 461.5,60.8333 461.5,51.1667 461.5,41.5C 346.5,41.6667 231.5,41.5 116.5,41C 110.213,35.7397 110.547,30.7397 117.5,26C 233.167,25.3333 348.833,25.3333 464.5,26C 469.712,27.0174 473.545,29.8508 476,34.5C 477.282,48.7652 477.949,63.0985 478,77.5C 489.196,99.2278 500.363,120.894 511.5,142.5 Z M 46.5,86.5 C 61.1667,86.5 75.8333,86.5 90.5,86.5C 84.9053,103.616 78.9053,120.616 72.5,137.5C 55.1763,138.666 37.8429,138.833 20.5,138C 29.3077,120.884 37.9743,103.718 46.5,86.5 Z M 108.5,86.5 C 123.5,86.5 138.5,86.5 153.5,86.5C 150.217,103.579 146.551,120.579 142.5,137.5C 124.843,138.666 107.176,138.833 89.5,138C 95.9352,120.86 102.269,103.693 108.5,86.5 Z M 170.5,86.5 C 185.833,86.5 201.167,86.5 216.5,86.5C 215.072,103.821 213.739,121.155 212.5,138.5C 194.833,138.5 177.167,138.5 159.5,138.5C 162.66,121.031 166.327,103.698 170.5,86.5 Z M 232.5,86.5 C 247.833,86.5 263.167,86.5 278.5,86.5C 279.833,103.833 281.167,121.167 282.5,138.5C 264.5,138.5 246.5,138.5 228.5,138.5C 229.833,121.167 231.167,103.833 232.5,86.5 Z M 294.5,86.5 C 309.837,86.3334 325.17,86.5001 340.5,87C 344.738,104.021 348.404,121.187 351.5,138.5C 333.833,138.5 316.167,138.5 298.5,138.5C 297.261,121.155 295.928,103.821 294.5,86.5 Z M 357.5,86.5 C 372.504,86.3334 387.504,86.5001 402.5,87C 408.833,104 415.167,121 421.5,138C 403.824,138.833 386.157,138.666 368.5,137.5C 364.449,120.579 360.783,103.579 357.5,86.5 Z M 420.5,86.5 C 435.17,86.3334 449.837,86.5001 464.5,87C 473.167,104 481.833,121 490.5,138C 473.157,138.833 455.824,138.666 438.5,137.5C 432.095,120.616 426.095,103.616 420.5,86.5 Z M 15.5,154.5 C 33.8333,154.5 52.1667,154.5 70.5,154.5C 70.6664,162.174 70.4997,169.841 70,177.5C 67.3696,192.962 58.2029,201.295 42.5,202.5C 28.6819,201.183 19.8486,193.849 16,180.5C 15.5002,171.84 15.3336,163.173 15.5,154.5 Z M 86.5,154.5 C 104.833,154.5 123.167,154.5 141.5,154.5C 141.666,161.841 141.5,169.174 141,176.5C 138.831,192.501 129.665,201.167 113.5,202.5C 99.6819,201.183 90.8486,193.849 87,180.5C 86.5002,171.84 86.3336,163.173 86.5,154.5 Z M 157.5,154.5 C 175.833,154.5 194.167,154.5 212.5,154.5C 212.666,161.508 212.5,168.508 212,175.5C 210.29,192.043 201.124,201.043 184.5,202.5C 171.111,201.28 162.277,194.28 158,181.5C 157.5,172.506 157.334,163.506 157.5,154.5 Z M 228.5,154.5 C 246.5,154.5 264.5,154.5 282.5,154.5C 282.666,163.506 282.5,172.506 282,181.5C 273.84,201.111 260.007,206.611 240.5,198C 234.722,193.883 230.889,188.383 229,181.5C 228.5,172.506 228.334,163.506 228.5,154.5 Z M 298.5,154.5 C 316.833,154.5 335.167,154.5 353.5,154.5C 353.666,163.506 353.5,172.506 353,181.5C 344.796,201.124 330.962,206.624 311.5,198C 303.945,192.43 299.779,184.93 299,175.5C 298.5,168.508 298.334,161.508 298.5,154.5 Z M 369.5,154.5 C 387.833,154.5 406.167,154.5 424.5,154.5C 424.666,163.173 424.5,171.84 424,180.5C 416.366,200.936 402.533,206.769 382.5,198C 374.87,192.914 370.703,185.747 370,176.5C 369.5,169.174 369.334,161.841 369.5,154.5 Z M 440.5,154.5 C 458.833,154.5 477.167,154.5 495.5,154.5C 495.666,163.173 495.5,171.84 495,180.5C 487.366,200.936 473.533,206.769 453.5,198C 446.162,193.168 441.996,186.334 441,177.5C 440.5,169.841 440.334,162.174 440.5,154.5 Z M 77.5,200.5 C 95.0643,219.912 115.398,223.412 138.5,211C 142.667,208.167 146.167,204.667 149,200.5C 166.358,219.971 186.525,223.471 209.5,211C 213.667,208.167 217.167,204.667 220,200.5C 236.457,219.325 255.957,223.158 278.5,212C 280.833,210.333 283.167,208.667 285.5,207C 286.958,204.54 288.791,202.373 291,200.5C 305.105,217.309 322.605,222.142 343.5,215C 350.813,211.693 356.98,206.86 362,200.5C 375.988,217.7 393.488,222.534 414.5,215C 421.813,211.693 427.98,206.86 433,200.5C 439.83,209.837 448.996,215.504 460.5,217.5C 460.5,286.5 460.5,355.5 460.5,424.5C 366.5,424.5 272.5,424.5 178.5,424.5C 178.667,367.499 178.5,310.499 178,253.5C 176.5,249.333 173.667,246.5 169.5,245C 137.5,244.333 105.5,244.333 73.5,245C 68.7938,246.105 65.6271,248.938 64,253.5C 63.5,310.499 63.3333,367.499 63.5,424.5C 59.1667,424.5 54.8333,424.5 50.5,424.5C 50.5,355.5 50.5,286.5 50.5,217.5C 62.0034,215.593 71.0034,209.927 77.5,200.5 Z M 79.5,260.5 C 107.167,260.5 134.833,260.5 162.5,260.5C 162.5,315.167 162.5,369.833 162.5,424.5C 134.833,424.5 107.167,424.5 79.5,424.5C 79.5,369.833 79.5,315.167 79.5,260.5 Z M 22.5,440.5 C 177.834,440.333 333.167,440.5 488.5,441C 491.196,441.69 493.363,443.19 495,445.5C 496.363,453.429 496.863,461.429 496.5,469.5C 335.833,469.5 175.167,469.5 14.5,469.5C 14.1367,461.429 14.6367,453.429 16,445.5C 17.8049,443.174 19.9716,441.508 22.5,440.5 Z"/></g>
<g><path style="opacity:0.936" fill="#000000" d="M 203.5,244.5 C 236.502,244.333 269.502,244.5 302.5,245C 307.087,247.763 308.254,251.597 306,256.5C 304.681,258.487 302.848,259.654 300.5,260C 270.168,260.5 239.835,260.667 209.5,260.5C 209.5,299.5 209.5,338.5 209.5,377.5C 281.167,377.5 352.833,377.5 424.5,377.5C 424.5,338.5 424.5,299.5 424.5,260.5C 394.165,260.667 363.832,260.5 333.5,260C 325.589,256.445 324.589,251.445 330.5,245C 363.833,244.333 397.167,244.333 430.5,245C 435.667,246.167 438.833,249.333 440,254.5C 440.667,297.5 440.667,340.5 440,383.5C 438.073,388.428 434.573,391.594 429.5,393C 354.5,393.667 279.5,393.667 204.5,393C 199,391.5 195.5,388 194,382.5C 193.333,339.833 193.333,297.167 194,254.5C 196.048,249.955 199.215,246.622 203.5,244.5 Z"/></g>
<g><path style="opacity:0.93" fill="#000000" d="M 139.5,325.5 C 141.857,325.337 144.19,325.503 146.5,326C 148.333,326.5 149.5,327.667 150,329.5C 150.667,336.5 150.667,343.5 150,350.5C 147.487,354.212 143.987,355.378 139.5,354C 137.667,353.5 136.5,352.333 136,350.5C 135.333,343.5 135.333,336.5 136,329.5C 136.69,327.65 137.856,326.316 139.5,325.5 Z"/></g>
</svg>
